<svg width="608" height="240" viewBox="0 0 608 240" fill="none" xmlns="http://www.w3.org/2000/svg">
<path d="M346.828 122.828C348.391 121.266 348.391 118.734 346.828 117.172L321.373 91.7157C319.81 90.1536 317.278 90.1536 315.716 91.7157C314.154 93.2778 314.154 95.8105 315.716 97.3726L338.343 120L315.716 142.627C314.154 144.19 314.154 146.722 315.716 148.284C317.278 149.846 319.81 149.846 321.373 148.284L346.828 122.828ZM264 124H304V116H264V124ZM304 124H344V116H304V124Z" fill="black"/>
<rect x="0.5" y="0.5" width="239" height="239" stroke="black"/>
<path d="M19.5098 48V43.9H29.4098V15.25L19.5098 22.65V17.65L27.7598 11.5H33.9098V43.9H42.0098V48H19.5098Z" fill="black"/>
<path d="M79.6098 48V43.4L90.7598 31.55C92.6598 29.5167 94.0431 27.7167 94.9098 26.15C95.7764 24.55 96.2098 23.0167 96.2098 21.55C96.2098 19.5167 95.6431 17.9167 94.5098 16.75C93.4098 15.5833 91.8931 15 89.9598 15C87.8264 15 86.1431 15.6 84.9098 16.8C83.7098 18 83.1098 19.65 83.1098 21.75H78.6098C78.6764 19.55 79.1764 17.65 80.1098 16.05C81.0764 14.4167 82.3931 13.1667 84.0598 12.3C85.7598 11.4333 87.7264 11 89.9598 11C92.1598 11 94.0598 11.4333 95.6598 12.3C97.2931 13.1333 98.5431 14.3333 99.4098 15.9C100.276 17.4667 100.71 19.3333 100.71 21.5C100.71 23.5667 100.16 25.6167 99.0598 27.65C97.9598 29.6833 96.1598 32 93.6598 34.6L84.6598 43.9H101.31V48H79.6098Z" fill="black"/>
<path d="M199.61 108V71.5H209.06C211.426 71.5 213.46 71.95 215.16 72.85C216.893 73.75 218.226 75.0167 219.16 76.65C220.126 78.2833 220.61 80.2167 220.61 82.45V97C220.61 99.2333 220.126 101.183 219.16 102.85C218.226 104.483 216.893 105.75 215.16 106.65C213.46 107.55 211.426 108 209.06 108H199.61ZM204.11 104H209.06C211.26 104 212.976 103.383 214.21 102.15C215.476 100.917 216.11 99.2 216.11 97V82.45C216.11 80.2833 215.476 78.5833 214.21 77.35C212.976 76.1167 211.26 75.5 209.06 75.5H204.11V104Z" fill="black"/>
<path d="M199.76 228V191.45H221.26V195.55H204.16V207.7H219.96V211.8H204.26V228H199.76Z" fill="black"/>
<path d="M139.66 228V191.5H150.01C153.343 191.5 155.943 192.333 157.81 194C159.71 195.667 160.66 197.983 160.66 200.95C160.66 202.617 160.31 204.067 159.61 205.3C158.91 206.533 157.91 207.483 156.61 208.15C155.343 208.817 153.81 209.133 152.01 209.1V208.35C153.943 208.317 155.61 208.683 157.01 209.45C158.443 210.217 159.543 211.317 160.31 212.75C161.11 214.183 161.51 215.883 161.51 217.85C161.51 219.917 161.076 221.717 160.21 223.25C159.343 224.783 158.11 225.967 156.51 226.8C154.91 227.6 152.993 228 150.76 228H139.66ZM144.06 223.95H150.26C152.36 223.95 154.01 223.4 155.21 222.3C156.443 221.167 157.06 219.633 157.06 217.7C157.06 215.7 156.443 214.083 155.21 212.85C154.01 211.583 152.36 210.95 150.26 210.95H144.06V223.95ZM144.06 207.05H149.96C151.893 207.05 153.41 206.533 154.51 205.5C155.643 204.467 156.21 203.067 156.21 201.3C156.21 199.533 155.66 198.133 154.56 197.1C153.46 196.067 151.943 195.55 150.01 195.55H144.06V207.05Z" fill="black"/>
<path d="M90.0098 228.5C87.7764 228.5 85.8264 228.067 84.1598 227.2C82.5264 226.3 81.2598 225.05 80.3598 223.45C79.4598 221.817 79.0098 219.917 79.0098 217.75V201.75C79.0098 199.55 79.4598 197.65 80.3598 196.05C81.2598 194.45 82.5264 193.217 84.1598 192.35C85.8264 191.45 87.7764 191 90.0098 191C92.2764 191 94.2264 191.45 95.8598 192.35C97.4931 193.217 98.7598 194.45 99.6598 196.05C100.56 197.65 101.01 199.55 101.01 201.75V217.75C101.01 219.917 100.56 221.817 99.6598 223.45C98.7598 225.05 97.4764 226.3 95.8098 227.2C94.1764 228.067 92.2431 228.5 90.0098 228.5ZM90.0098 224.65C92.0098 224.65 93.6098 224.017 94.8098 222.75C96.0431 221.45 96.6598 219.783 96.6598 217.75V201.75C96.6598 199.717 96.0431 198.067 94.8098 196.8C93.6098 195.5 92.0098 194.85 90.0098 194.85C88.0098 194.85 86.3931 195.5 85.1598 196.8C83.9598 198.067 83.3598 199.717 83.3598 201.75V217.75C83.3598 219.783 83.9598 221.45 85.1598 222.75C86.3931 224.017 88.0098 224.65 90.0098 224.65ZM90.0098 212.7C89.1098 212.7 88.3764 212.417 87.8098 211.85C87.2764 211.283 87.0098 210.533 87.0098 209.6C87.0098 208.7 87.2764 207.983 87.8098 207.45C88.3764 206.883 89.1098 206.6 90.0098 206.6C90.9098 206.6 91.6264 206.883 92.1598 207.45C92.7264 207.983 93.0098 208.7 93.0098 209.6C93.0098 210.533 92.7264 211.283 92.1598 211.85C91.6264 212.417 90.9098 212.7 90.0098 212.7Z" fill="black"/>
<path d="M17.5098 228L27.0098 191.5H33.0598L42.5098 228H37.9598L35.5598 218.3H24.5098L22.1098 228H17.5098ZM25.4098 214.5H34.6098L31.8098 203.25C31.2764 201.117 30.8598 199.333 30.5598 197.9C30.2598 196.467 30.0764 195.533 30.0098 195.1C29.9431 195.533 29.7598 196.467 29.4598 197.9C29.1598 199.333 28.7431 201.1 28.2098 203.2L25.4098 214.5Z" fill="black"/>
<path d="M200.01 168V131.5H221.01V135.6H204.46V146.9H219.26V150.95H204.46V163.9H221.01V168H200.01Z" fill="black"/>
<path d="M144.36 168L154.71 151.4L154.51 151.25C153.876 152.183 153.01 152.9 151.91 153.4C150.81 153.9 149.576 154.15 148.21 154.15C146.243 154.15 144.51 153.683 143.01 152.75C141.543 151.817 140.41 150.5 139.61 148.8C138.81 147.067 138.41 145.05 138.41 142.75C138.41 140.383 138.893 138.333 139.86 136.6C140.826 134.833 142.176 133.467 143.91 132.5C145.643 131.5 147.66 131 149.96 131C152.293 131 154.326 131.5 156.06 132.5C157.826 133.467 159.193 134.833 160.16 136.6C161.126 138.333 161.61 140.383 161.61 142.75C161.61 144.583 161.343 146.383 160.81 148.15C160.31 149.917 159.543 151.617 158.51 153.25L149.36 168H144.36ZM150.01 150.5C152.143 150.5 153.86 149.8 155.16 148.4C156.46 146.967 157.11 145.083 157.11 142.75C157.11 140.417 156.46 138.55 155.16 137.15C153.86 135.717 152.143 135 150.01 135C147.876 135 146.16 135.717 144.86 137.15C143.56 138.55 142.91 140.417 142.91 142.75C142.91 145.083 143.56 146.967 144.86 148.4C146.16 149.8 147.876 150.5 150.01 150.5Z" fill="black"/>
<path d="M90.0098 168.5C87.7764 168.5 85.8264 168.117 84.1598 167.35C82.5264 166.55 81.2598 165.417 80.3598 163.95C79.4598 162.483 79.0098 160.767 79.0098 158.8C79.0098 156.633 79.5931 154.767 80.7598 153.2C81.9598 151.633 83.8431 150.233 86.4098 149L91.2598 146.65C92.7264 145.95 93.8598 145.033 94.6598 143.9C95.4598 142.767 95.8598 141.517 95.8598 140.15C95.8598 138.55 95.3264 137.283 94.2598 136.35C93.2264 135.417 91.8098 134.95 90.0098 134.95C88.2098 134.95 86.7764 135.433 85.7098 136.4C84.6764 137.333 84.1598 138.6 84.1598 140.2C84.1598 141.533 84.5431 142.767 85.3098 143.9C86.1098 145.033 87.1931 145.933 88.5598 146.6L93.4098 148.9C96.0764 150.133 98.0098 151.55 99.2098 153.15C100.41 154.717 101.01 156.6 101.01 158.8C101.01 161.767 100.01 164.133 98.0098 165.9C96.0431 167.633 93.3764 168.5 90.0098 168.5ZM90.0098 164.5C92.0431 164.5 93.6431 163.983 94.8098 162.95C96.0098 161.883 96.6098 160.467 96.6098 158.7C96.6098 157.267 96.2264 155.967 95.4598 154.8C94.6931 153.633 93.5931 152.7 92.1598 152L87.3598 149.65C84.6931 148.35 82.7598 146.95 81.5598 145.45C80.3598 143.95 79.7598 142.15 79.7598 140.05C79.7598 138.183 80.1764 136.567 81.0098 135.2C81.8431 133.833 83.0264 132.783 84.5598 132.05C86.0931 131.317 87.9098 130.95 90.0098 130.95C92.1098 130.95 93.9264 131.317 95.4598 132.05C96.9931 132.783 98.1764 133.833 99.0098 135.2C99.8431 136.567 100.26 138.183 100.26 140.05C100.26 142.15 99.6598 143.95 98.4598 145.45C97.2598 146.917 95.2764 148.333 92.5098 149.7L87.7098 152.05C86.3431 152.717 85.2764 153.633 84.5098 154.8C83.7764 155.933 83.4098 157.2 83.4098 158.6C83.4098 160.4 83.9931 161.833 85.1598 162.9C86.3598 163.967 87.9764 164.5 90.0098 164.5Z" fill="black"/>
<path d="M24.2598 168L37.3098 135.6H23.5098V141H19.0098V131.5H41.7598V135.9L29.1098 168H24.2598Z" fill="black"/>
<path d="M150.06 108.5C147.726 108.5 145.676 108.017 143.91 107.05C142.176 106.05 140.826 104.667 139.86 102.9C138.893 101.133 138.41 99.0833 138.41 96.75C138.41 94.9167 138.66 93.1167 139.16 91.35C139.693 89.5833 140.476 87.8833 141.51 86.25L150.66 71.5H155.66L145.31 88.1L145.51 88.25C146.143 87.3167 147.01 86.6 148.11 86.1C149.21 85.6 150.443 85.35 151.81 85.35C153.81 85.35 155.543 85.8167 157.01 86.75C158.476 87.6833 159.61 89 160.41 90.7C161.21 92.4 161.61 94.4167 161.61 96.75C161.61 99.0833 161.126 101.133 160.16 102.9C159.193 104.667 157.843 106.05 156.11 107.05C154.41 108.017 152.393 108.5 150.06 108.5ZM150.01 104.5C152.143 104.5 153.86 103.8 155.16 102.4C156.46 100.967 157.11 99.0833 157.11 96.75C157.11 94.4167 156.46 92.55 155.16 91.15C153.86 89.7167 152.143 89 150.01 89C147.876 89 146.16 89.7167 144.86 91.15C143.56 92.55 142.91 94.4167 142.91 96.75C142.91 99.0833 143.56 100.967 144.86 102.4C146.16 103.8 147.876 104.5 150.01 104.5Z" fill="black"/>
<path d="M89.9098 108.5C86.9431 108.5 84.5098 107.733 82.6098 106.2C80.7098 104.667 79.5931 102.6 79.2598 100H83.7598C83.9264 101.433 84.5431 102.55 85.6098 103.35C86.6764 104.117 88.1264 104.5 89.9598 104.5C92.0598 104.5 93.6264 103.933 94.6598 102.8C95.7264 101.667 96.2598 100.067 96.2598 98V94.45C96.2598 92.3833 95.7264 90.7833 94.6598 89.65C93.6264 88.5167 92.0764 87.95 90.0098 87.95C88.7098 87.95 87.5764 88.3 86.6098 89C85.6431 89.6667 84.9431 90.5667 84.5098 91.7H80.0098L80.2598 71.5H99.4598V75.6H84.6098L84.4598 87.75H85.8598L84.4598 89.05C84.4598 87.4833 85.0764 86.25 86.3098 85.35C87.5764 84.45 89.2598 84 91.3598 84C94.3264 83.9667 96.6264 84.8833 98.2598 86.75C99.9264 88.5833 100.76 91.15 100.76 94.45V98C100.76 101.233 99.8098 103.8 97.9098 105.7C96.0098 107.567 93.3431 108.5 89.9098 108.5Z" fill="black"/>
<path d="M35.5098 108V100H19.0098V92.95L33.4598 71.5H38.3598L23.5098 93.9V95.9H35.5098V87H40.0098V108H35.5098Z" fill="black"/>
<path d="M210.21 48.5C208.01 48.5 206.093 48.0833 204.46 47.25C202.86 46.4167 201.61 45.2167 200.71 43.65C199.843 42.05 199.41 40.1667 199.41 38V21.5C199.41 19.3 199.843 17.4167 200.71 15.85C201.61 14.2833 202.86 13.0833 204.46 12.25C206.093 11.4167 208.01 11 210.21 11C212.41 11 214.31 11.4333 215.91 12.3C217.51 13.1333 218.743 14.3333 219.61 15.9C220.476 17.4667 220.91 19.3333 220.91 21.5H216.41C216.41 19.4333 215.86 17.85 214.76 16.75C213.693 15.6167 212.176 15.05 210.21 15.05C208.243 15.05 206.693 15.6 205.56 16.7C204.46 17.8 203.91 19.3833 203.91 21.45V38C203.91 40.0667 204.46 41.6667 205.56 42.8C206.693 43.9 208.243 44.45 210.21 44.45C212.176 44.45 213.693 43.9 214.76 42.8C215.86 41.6667 216.41 40.0667 216.41 38H220.91C220.91 40.1333 220.476 42 219.61 43.6C218.743 45.1667 217.51 46.3833 215.91 47.25C214.31 48.0833 212.41 48.5 210.21 48.5Z" fill="black"/>
<path d="M149.46 48.5C147.26 48.5 145.326 48.0667 143.66 47.2C142.026 46.3 140.76 45.0667 139.86 43.5C138.96 41.9333 138.51 40.1 138.51 38H143.01C143.01 40.0333 143.576 41.6333 144.71 42.8C145.876 43.9333 147.476 44.5 149.51 44.5C151.576 44.5 153.176 43.9 154.31 42.7C155.443 41.5 156.01 39.9333 156.01 38V35.4C156.01 33.3333 155.443 31.7333 154.31 30.6C153.176 29.4667 151.576 28.9 149.51 28.9H145.76V24.4L154.81 15.6H140.01V11.5H159.36V16L149.61 25.45V24.9C152.943 24.9 155.593 25.85 157.56 27.75C159.526 29.65 160.51 32.2 160.51 35.4V38C160.51 40.1 160.043 41.9333 159.11 43.5C158.21 45.0667 156.926 46.3 155.26 47.2C153.593 48.0667 151.66 48.5 149.46 48.5Z" fill="black"/>
<line x1="60.5" y1="-2.73196e-08" x2="60.5" y2="240" stroke="black"/>
<line y1="119.5" x2="240" y2="119.5" stroke="black"/>
<line y1="59.5" x2="240" y2="59.5" stroke="black"/>
<line y1="179.5" x2="240" y2="179.5" stroke="black"/>
<line x1="180.5" y1="-2.73196e-08" x2="180.5" y2="240" stroke="black"/>
<line x1="120.5" y1="-2.73196e-08" x2="120.5" y2="240" stroke="black"/>
<rect x="368.5" y="0.5" width="239" height="239" stroke="black"/>
<path d="M387.51 48V43.9H397.41V15.25L387.51 22.65V17.65L395.76 11.5H401.91V43.9H410.01V48H387.51Z" fill="black"/>
<path d="M447.61 48V43.4L458.76 31.55C460.66 29.5167 462.043 27.7167 462.91 26.15C463.776 24.55 464.21 23.0167 464.21 21.55C464.21 19.5167 463.643 17.9167 462.51 16.75C461.41 15.5833 459.893 15 457.96 15C455.826 15 454.143 15.6 452.91 16.8C451.71 18 451.11 19.65 451.11 21.75H446.61C446.676 19.55 447.176 17.65 448.11 16.05C449.076 14.4167 450.393 13.1667 452.06 12.3C453.76 11.4333 455.726 11 457.96 11C460.16 11 462.06 11.4333 463.66 12.3C465.293 13.1333 466.543 14.3333 467.41 15.9C468.276 17.4667 468.71 19.3333 468.71 21.5C468.71 23.5667 468.16 25.6167 467.06 27.65C465.96 29.6833 464.16 32 461.66 34.6L452.66 43.9H469.31V48H447.61Z" fill="black"/>
<path d="M567.61 108V71.5H578.91C581.076 71.5 582.976 71.95 584.61 72.85C586.243 73.7167 587.51 74.9333 588.41 76.5C589.31 78.0667 589.76 79.9 589.76 82C589.76 84.4667 589.11 86.5833 587.81 88.35C586.543 90.1167 584.81 91.3333 582.61 92L590.26 108H584.96L577.96 92.5H572.11V108H567.61ZM572.11 88.45H578.91C580.776 88.45 582.276 87.8667 583.41 86.7C584.543 85.5 585.11 83.9333 585.11 82C585.11 80.0333 584.543 78.4667 583.41 77.3C582.276 76.1333 580.776 75.55 578.91 75.55H572.11V88.45Z" fill="black"/>
<path d="M574.91 228L565.51 191.5H570.16L576.36 216.3C576.793 218.033 577.16 219.65 577.46 221.15C577.76 222.617 577.976 223.733 578.11 224.5C578.243 223.733 578.443 222.617 578.71 221.15C579.01 219.65 579.376 218.033 579.81 216.3L585.96 191.5H590.51L581.06 228H574.91Z" fill="black"/>
<path d="M518.21 228.5C516.01 228.5 514.093 228.083 512.46 227.25C510.86 226.417 509.61 225.217 508.71 223.65C507.843 222.05 507.41 220.167 507.41 218V201.5C507.41 199.3 507.843 197.417 508.71 195.85C509.61 194.283 510.86 193.083 512.46 192.25C514.093 191.417 516.01 191 518.21 191C520.41 191 522.31 191.433 523.91 192.3C525.51 193.133 526.743 194.333 527.61 195.9C528.476 197.467 528.91 199.333 528.91 201.5H524.41C524.41 199.433 523.86 197.85 522.76 196.75C521.693 195.617 520.176 195.05 518.21 195.05C516.243 195.05 514.693 195.6 513.56 196.7C512.46 197.8 511.91 199.383 511.91 201.45V218C511.91 220.067 512.46 221.667 513.56 222.8C514.693 223.9 516.243 224.45 518.21 224.45C520.176 224.45 521.693 223.9 522.76 222.8C523.86 221.667 524.41 220.067 524.41 218H528.91C528.91 220.133 528.476 222 527.61 223.6C526.743 225.167 525.51 226.383 523.91 227.25C522.31 228.083 520.41 228.5 518.21 228.5Z" fill="black"/>
<path d="M445.01 228L455.51 209.5L445.56 191.5H450.76L456.41 202.3C456.71 202.867 457.01 203.483 457.31 204.15C457.643 204.783 457.91 205.283 458.11 205.65C458.276 205.283 458.51 204.783 458.81 204.15C459.143 203.483 459.46 202.867 459.76 202.3L465.51 191.5H470.46L460.51 209.2L471.01 228H465.86L459.61 216.4C459.31 215.833 458.993 215.233 458.66 214.6C458.36 213.933 458.126 213.4 457.96 213C457.793 213.4 457.543 213.917 457.21 214.55C456.91 215.183 456.61 215.783 456.31 216.35L450.01 228H445.01Z" fill="black"/>
<path d="M387.26 228V223.5L403.71 195.6H387.51V191.5H408.26V196L391.81 223.9H408.76V228H387.26Z" fill="black"/>
<path d="M567.76 168V131.45H589.26V135.55H572.16V147.7H587.96V151.8H572.26V168H567.76Z" fill="black"/>
<path d="M507.61 168V131.5H517.06C519.426 131.5 521.46 131.95 523.16 132.85C524.893 133.75 526.226 135.017 527.16 136.65C528.126 138.283 528.61 140.217 528.61 142.45V157C528.61 159.233 528.126 161.183 527.16 162.85C526.226 164.483 524.893 165.75 523.16 166.65C521.46 167.55 519.426 168 517.06 168H507.61ZM512.11 164H517.06C519.26 164 520.976 163.383 522.21 162.15C523.476 160.917 524.11 159.2 524.11 157V142.45C524.11 140.283 523.476 138.583 522.21 137.35C520.976 136.117 519.26 135.5 517.06 135.5H512.11V164Z" fill="black"/>
<path d="M458.21 168.5C455.81 168.5 453.743 168.1 452.01 167.3C450.31 166.5 448.993 165.35 448.06 163.85C447.126 162.35 446.643 160.567 446.61 158.5H451.11C451.11 160.333 451.726 161.783 452.96 162.85C454.226 163.917 455.976 164.45 458.21 164.45C460.31 164.45 461.943 163.933 463.11 162.9C464.31 161.867 464.91 160.433 464.91 158.6C464.91 157.133 464.51 155.85 463.71 154.75C462.943 153.65 461.826 152.883 460.36 152.45L455.41 150.9C452.91 150.133 450.976 148.85 449.61 147.05C448.276 145.25 447.61 143.133 447.61 140.7C447.61 138.733 448.043 137.033 448.91 135.6C449.81 134.133 451.06 133 452.66 132.2C454.26 131.367 456.143 130.95 458.31 130.95C461.51 130.95 464.076 131.85 466.01 133.65C467.943 135.417 468.926 137.783 468.96 140.75H464.46C464.46 138.95 463.91 137.55 462.81 136.55C461.743 135.517 460.226 135 458.26 135C456.326 135 454.81 135.467 453.71 136.4C452.643 137.333 452.11 138.633 452.11 140.3C452.11 141.8 452.51 143.1 453.31 144.2C454.11 145.3 455.26 146.083 456.76 146.55L461.76 148.15C464.193 148.917 466.076 150.217 467.41 152.05C468.743 153.883 469.41 156.033 469.41 158.5C469.41 160.5 468.943 162.25 468.01 163.75C467.076 165.25 465.76 166.417 464.06 167.25C462.393 168.083 460.443 168.5 458.21 168.5Z" fill="black"/>
<path d="M385.51 168L395.01 131.5H401.06L410.51 168H405.96L403.56 158.3H392.51L390.11 168H385.51ZM393.41 154.5H402.61L399.81 143.25C399.276 141.117 398.86 139.333 398.56 137.9C398.26 136.467 398.076 135.533 398.01 135.1C397.943 135.533 397.76 136.467 397.46 137.9C397.16 139.333 396.743 141.1 396.21 143.2L393.41 154.5Z" fill="black"/>
<path d="M508.01 108V71.5H529.01V75.6H512.46V86.9H527.26V90.95H512.46V103.9H529.01V108H508.01Z" fill="black"/>
<path d="M448.46 108L444.26 71.5H448.56L451.31 98.5C451.376 99.2333 451.443 100 451.51 100.8C451.576 101.567 451.626 102.3 451.66 103C451.726 103.7 451.76 104.283 451.76 104.75C451.826 104.283 451.876 103.7 451.91 103C451.976 102.3 452.043 101.567 452.11 100.8C452.21 100 452.31 99.2333 452.41 98.5L455.81 71.5H460.46L463.56 98.5C463.66 99.2333 463.743 100 463.81 100.8C463.91 101.567 463.993 102.3 464.06 103C464.16 103.7 464.226 104.283 464.26 104.75C464.293 104.283 464.326 103.7 464.36 103C464.426 102.3 464.493 101.567 464.56 100.8C464.66 100 464.743 99.2333 464.81 98.5L467.66 71.5H471.76L467.46 108H461.81L458.71 80.5C458.643 79.7333 458.56 78.9833 458.46 78.25C458.393 77.5167 458.326 76.8333 458.26 76.2C458.193 75.5667 458.143 75.05 458.11 74.65C458.076 75.05 458.01 75.5667 457.91 76.2C457.843 76.8333 457.776 77.5167 457.71 78.25C457.643 78.9833 457.56 79.7333 457.46 80.5L454.11 108H448.46Z" fill="black"/>
<path d="M404.11 117L398.76 108.15L399.26 108.45C399.126 108.45 398.943 108.45 398.71 108.45C398.51 108.483 398.276 108.5 398.01 108.5C395.776 108.5 393.826 108.067 392.16 107.2C390.526 106.3 389.26 105.05 388.36 103.45C387.46 101.817 387.01 99.9167 387.01 97.75V81.75C387.01 79.55 387.46 77.65 388.36 76.05C389.26 74.45 390.526 73.2167 392.16 72.35C393.826 71.45 395.776 71 398.01 71C400.276 71 402.226 71.45 403.86 72.35C405.493 73.2167 406.76 74.45 407.66 76.05C408.56 77.65 409.01 79.55 409.01 81.75V97.75C409.01 99.9833 408.526 101.933 407.56 103.6C406.593 105.267 405.226 106.517 403.46 107.35L409.31 117H404.11ZM398.01 104.5C399.976 104.5 401.543 103.883 402.71 102.65C403.91 101.417 404.51 99.7833 404.51 97.75V81.75C404.51 79.6833 403.91 78.05 402.71 76.85C401.543 75.6167 399.976 75 398.01 75C396.043 75 394.46 75.6167 393.26 76.85C392.093 78.05 391.51 79.6833 391.51 81.75V97.75C391.51 99.7833 392.093 101.417 393.26 102.65C394.46 103.883 396.043 104.5 398.01 104.5Z" fill="black"/>
<path d="M583.51 48V40H567.01V32.95L581.46 11.5H586.36L571.51 33.9V35.9H583.51V27H588.01V48H583.51Z" fill="black"/>
<path d="M517.46 48.5C515.26 48.5 513.326 48.0667 511.66 47.2C510.026 46.3 508.76 45.0667 507.86 43.5C506.96 41.9333 506.51 40.1 506.51 38H511.01C511.01 40.0333 511.576 41.6333 512.71 42.8C513.876 43.9333 515.476 44.5 517.51 44.5C519.576 44.5 521.176 43.9 522.31 42.7C523.443 41.5 524.01 39.9333 524.01 38V35.4C524.01 33.3333 523.443 31.7333 522.31 30.6C521.176 29.4667 519.576 28.9 517.51 28.9H513.76V24.4L522.81 15.6H508.01V11.5H527.36V16L517.61 25.45V24.9C520.943 24.9 523.593 25.85 525.56 27.75C527.526 29.65 528.51 32.2 528.51 35.4V38C528.51 40.1 528.043 41.9333 527.11 43.5C526.21 45.0667 524.926 46.3 523.26 47.2C521.593 48.0667 519.66 48.5 517.46 48.5Z" fill="black"/>
<line x1="428.5" y1="-2.73196e-08" x2="428.5" y2="240" stroke="black"/>
<line x1="368" y1="119.5" x2="608" y2="119.5" stroke="black"/>
<line x1="368" y1="59.5" x2="608" y2="59.5" stroke="black"/>
<line x1="368" y1="179.5" x2="608" y2="179.5" stroke="black"/>
<line x1="548.5" y1="-2.73196e-08" x2="548.5" y2="240" stroke="black"/>
<line x1="488.5" y1="-2.73196e-08" x2="488.5" y2="240" stroke="black"/>
</svg>
