<?xml version="1.0" encoding="iso-8859-1"?>
<!-- Generator: Adobe Illustrator 18.0.0, SVG Export Plug-In . SVG Version: 6.00 Build 0)  -->
<!DOCTYPE svg PUBLIC "-//W3C//DTD SVG 1.1//EN" "http://www.w3.org/Graphics/SVG/1.1/DTD/svg11.dtd">
<svg version="1.1" id="Capa_1" xmlns="http://www.w3.org/2000/svg" xmlns:xlink="http://www.w3.org/1999/xlink" x="0px" y="0px"
	 viewBox="0 0 320.415 320.415" style="enable-background:new 0 0 320.415 320.415;" xml:space="preserve">
<g>
	<path d="M219.044,48.206l-96.92,55.979l0.161,77.924l96.759-56.063V48.206z"/>
	<path d="M124.139,320.403l0.019,0.012C124.844,320.318,124.71,320.332,124.139,320.403z"/>
	<path d="M243.331,12.782L161.269,0L57.011,60.782l0.39,91.279c1.053,1.591,2.029,3.051,2.288,3.451L9.873,185.02v68.227
		l111.623,65.572l189.047-110.88v-66.127c0-0.017-0.003-0.033-0.004-0.051c0-0.007,0.001-2.232,0.002-4.46l-67.123-39.295
		L243.331,12.782z M228.417,30.404v101.495l-115.666,67.275V97.908C118.053,94.892,228.417,30.404,228.417,30.404z M295.543,199.35
		l-166.147,97.515V251.96l166.147-97.079V199.35z"/>
	<path d="M227.2,226.965c1.268,0,2.556-0.322,3.734-1.001l52.682-30.318c3.59-2.065,4.825-6.651,2.759-10.241
		c-2.065-3.589-6.65-4.825-10.241-2.759l-52.682,30.318c-3.59,2.065-4.825,6.651-2.759,10.241
		C222.081,225.616,224.604,226.965,227.2,226.965z"/>
</g>
</svg>
